<svg width="12" height="12" viewBox="0 0 12 12" fill="none" xmlns="http://www.w3.org/2000/svg">
<path fill-rule="evenodd" clip-rule="evenodd" d="M11.5 0.045542C11.4537 0.0719249 9.91283 1.83366 8.07587 3.96047C6.23888 6.08729 4.7036 7.85511 4.66411 7.88898C4.58486 7.95694 4.44967 7.97002 4.35611 7.91876C4.32393 7.90113 3.78657 7.41058 3.16199 6.82861C2.53742 6.24668 1.9768 5.73649 1.91617 5.69492C1.56624 5.45481 1.09256 5.42256 0.69856 5.61198C0.476026 5.71897 0.229728 5.97262 0.112353 6.21572C0.0236183 6.39952 0.0119103 6.44886 0.00199725 6.68123C-0.0110772 6.98741 0.039747 7.22035 0.163097 7.41943C0.311203 7.6585 3.5429 11.6869 3.65288 11.7695C4.12439 12.1238 4.77763 12.064 5.18714 11.629C5.29634 11.513 6.15481 10.118 8.66602 5.97622C11.6409 1.06973 11.9999 0.465667 12 0.367787C12.0001 0.227041 11.9246 0.101379 11.8051 0.043348C11.6848 -0.0150949 11.6053 -0.0145189 11.5 0.045542Z" fill="#4ECC53"/>
</svg>
