<svg width="12" height="10" viewBox="0 0 12 10" fill="none" xmlns="http://www.w3.org/2000/svg">
<path fill-rule="evenodd" clip-rule="evenodd" d="M0.333759 8.25399C-0.0780948 8.62195 -0.113678 9.25411 0.254282 9.66597C0.622242 10.0778 1.25441 10.1134 1.66626 9.74545L5.88565 5.97575L10.105 9.74568C10.5169 10.1137 11.149 10.0781 11.517 9.66625C11.885 9.2544 11.8494 8.62224 11.4376 8.25426L7.38658 4.63478L10.5446 1.81337C10.9564 1.4454 10.992 0.813241 10.624 0.401387C10.2561 -0.0104677 9.62392 -0.0460515 9.21207 0.321909L5.88569 3.29377L2.5596 0.321976C2.14776 -0.0459974 1.51559 -0.0104342 1.14762 0.401408C0.779644 0.813251 0.815207 1.44542 1.22705 1.81339L4.38476 4.63474L0.333759 8.25399Z" fill="#F35050"/>
</svg>
